# xmcd
#
# Track frame offsets: 
#        150
#        21277
#        51987
#        89780
#        122367
#        162080
#        192157
#        236982
#        293572
#
# Disc length: 4002 seconds
#
# Revision: 1
# Processed by: cddbd v1.5.2PL0 Copyright (c) Steve Scherf et al.
# Submitted via: ExactAudioCopy v0.90b4
#
DISCID=7a0fa009
DTITLE=Alfredo Rodriguez and Los Acereko - Cuban Jazz
DYEAR=2002
DGENRE=Jazz
TTITLE0=Con el sabor de la tierra
TTITLE1=El Niche
TTITLE2=Caravan
TTITLE3=Consuélate
TTITLE4=Blues guaguancó
TTITLE5=Maleta y nylon
TTITLE6=All the Things You Are
TTITLE7=Pa' gozar
TTITLE8=Scène d'enfant
EXTD=YEAR: 2002
EXTT0=
EXTT1=
EXTT2=
EXTT3=
EXTT4=
EXTT5=
EXTT6=
EXTT7=
EXTT8=
PLAYORDER=
